<svg xmlns="http://www.w3.org/2000/svg" xmlns:xlink="http://www.w3.org/1999/xlink" width="170" height="110" viewBox="0 0 170 110">
  <defs>
    <linearGradient id="linear-gradient" x1="0.841" y1="-0.118" x2="0.176" y2="1.1" gradientUnits="objectBoundingBox">
      <stop offset="0" stop-color="#41c2d1"/>
      <stop offset="1" stop-color="#3ca2ae"/>
    </linearGradient>
    <clipPath id="clip-path">
      <rect id="사각형_96818" data-name="사각형 96818" width="22.315" height="34.925" fill="none" stroke="#fff" stroke-width="3"/>
    </clipPath>
  </defs>
  <g id="정책정보" transform="translate(-200 -642)">
    <rect id="사각형_96785" data-name="사각형 96785" width="170" height="110" rx="8" transform="translate(200 642)" fill="url(#linear-gradient)"/>
    <text id="정책정보-2" data-name="정책정보" transform="translate(220 681)" fill="#fff" font-size="18" font-family="Gwangyang Touching" letter-spacing="-0.025em"><tspan x="0" y="0">정책정보</tspan></text>
    <text id="바로가기" transform="translate(221 705)" fill="#fff" font-size="14" font-family="Pretendard-Light, Pretendard" font-weight="300" letter-spacing="-0.025em"><tspan x="0" y="0">바로가기</tspan></text>
    <g id="그룹_138061" data-name="그룹 138061" transform="translate(325.898 695.703)" opacity="0.3">
      <g id="그룹_138060" data-name="그룹 138060" transform="translate(0 0.001)" clip-path="url(#clip-path)">
        <line id="선_400" data-name="선 400" x2="14.31" transform="translate(4.002 33.75)" fill="none" stroke="#fff" stroke-linecap="round" stroke-linejoin="round" stroke-width="3"/>
        <path id="패스_266158" data-name="패스 266158" d="M1,10.2V15.72a9.983,9.983,0,1,0,19.966,0V10.2" transform="translate(0.175 1.78)" fill="none" stroke="#fff" stroke-linecap="round" stroke-linejoin="round" stroke-width="3"/>
        <path id="패스_266159" data-name="패스 266159" d="M10.285,22.61h0A5.284,5.284,0,0,1,5,17.326V6.285a5.285,5.285,0,0,1,10.569,0V17.326a5.284,5.284,0,0,1-5.285,5.285" transform="translate(0.873 0.174)" fill="none" stroke="#fff" stroke-width="3"/>
        <path id="패스_266160" data-name="패스 266160" d="M10.285,22.61h0A5.284,5.284,0,0,1,5,17.326V6.285a5.285,5.285,0,0,1,10.569,0V17.326A5.284,5.284,0,0,1,10.285,22.61Z" transform="translate(0.873 0.174)" fill="none" stroke="#fff" stroke-linecap="round" stroke-linejoin="round" stroke-width="3"/>
        <line id="선_401" data-name="선 401" y2="6.267" transform="translate(11.158 27.483)" fill="none" stroke="#fff" stroke-linecap="round" stroke-linejoin="round" stroke-width="3"/>
      </g>
    </g>
    <path id="Icon_ion-ios-arrow-forward" data-name="Icon ion-ios-arrow-forward" d="M13.691,9.256,11.375,6.941a.436.436,0,0,1,0-.618.441.441,0,0,1,.62,0l2.624,2.623a.437.437,0,0,1,.013.6L12,12.19a.438.438,0,0,1-.62-.618Z" transform="translate(261.813 690.743)" fill="#fff"/>
  </g>
</svg>
