<svg xmlns="http://www.w3.org/2000/svg" xmlns:xlink="http://www.w3.org/1999/xlink" width="390" height="75" viewBox="0 0 390 75">
  <defs>
    <style>
      .cls-1 {
        fill: #fff;
      }

      .cls-2, .cls-20 {
        fill: none;
      }

      .cls-3 {
        clip-path: url(#clip-path);
      }

      .cls-4 {
        fill: #2e2f2f;
      }

      .cls-5 {
        fill: url(#linear-gradient);
      }

      .cls-6 {
        fill: url(#linear-gradient-2);
      }

      .cls-7 {
        fill: url(#linear-gradient-3);
      }

      .cls-8 {
        fill: url(#linear-gradient-4);
      }

      .cls-9 {
        fill: url(#linear-gradient-5);
      }

      .cls-10 {
        fill: url(#linear-gradient-6);
      }

      .cls-11 {
        fill: url(#linear-gradient-7);
      }

      .cls-12 {
        fill: url(#linear-gradient-8);
      }

      .cls-13 {
        fill: url(#linear-gradient-9);
      }

      .cls-14 {
        fill: url(#linear-gradient-10);
      }

      .cls-15 {
        fill: url(#linear-gradient-11);
      }

      .cls-16 {
        clip-path: url(#clip-path-2);
      }

      .cls-17 {
        fill: #003f86;
      }

      .cls-17, .cls-18, .cls-19 {
        fill-rule: evenodd;
      }

      .cls-18 {
        fill: #ffaf00;
      }

      .cls-19 {
        fill: #dc000c;
      }

      .cls-20 {
        stroke: #000;
        stroke-linecap: round;
        stroke-width: 1.5px;
      }
    </style>
    <clipPath id="clip-path">
      <rect id="사각형_98238" data-name="사각형 98238" class="cls-1" width="390" height="75"/>
    </clipPath>
    <linearGradient id="linear-gradient" x1="0.331" y1="0.52" x2="10.132" y2="-3.816" gradientUnits="objectBoundingBox">
      <stop offset="0" stop-color="#e33c0b"/>
      <stop offset="0.063" stop-color="#df3d0b"/>
      <stop offset="0.116" stop-color="#d5430d"/>
      <stop offset="0.167" stop-color="#c34e10"/>
      <stop offset="0.215" stop-color="#aa5c13"/>
      <stop offset="0.262" stop-color="#8a6e19"/>
      <stop offset="0.307" stop-color="#63841f"/>
      <stop offset="0.349" stop-color="#399d26"/>
      <stop offset="0.494" stop-color="#2b8d46"/>
      <stop offset="0.84" stop-color="#0c6a8e"/>
      <stop offset="1" stop-color="#005dab"/>
    </linearGradient>
    <linearGradient id="linear-gradient-2" x1="-1.048" y1="0.724" x2="18.656" y2="-2.742" xlink:href="#linear-gradient"/>
    <linearGradient id="linear-gradient-3" x1="-1.255" y1="1.433" x2="8.159" y2="-3.821" xlink:href="#linear-gradient"/>
    <linearGradient id="linear-gradient-4" x1="-3.283" y1="1.684" x2="8.212" y2="-2.174" xlink:href="#linear-gradient"/>
    <linearGradient id="linear-gradient-5" x1="-0.513" y1="0.877" x2="7.342" y2="-1.69" xlink:href="#linear-gradient"/>
    <linearGradient id="linear-gradient-6" x1="-2.509" y1="1.23" x2="9.412" y2="-1.768" xlink:href="#linear-gradient"/>
    <linearGradient id="linear-gradient-7" x1="-1.25" y1="2.444" x2="4.753" y2="-5.055" xlink:href="#linear-gradient"/>
    <linearGradient id="linear-gradient-8" x1="-1.354" y1="1.288" x2="2.252" y2="-0.313" xlink:href="#linear-gradient"/>
    <linearGradient id="linear-gradient-9" x1="-2.472" y1="1.407" x2="0.559" y2="0.44" xlink:href="#linear-gradient"/>
    <linearGradient id="linear-gradient-10" x1="-3.525" y1="2.178" x2="1.23" y2="0.168" xlink:href="#linear-gradient"/>
    <linearGradient id="linear-gradient-11" x1="-2.271" y1="1.126" x2="2.157" y2="0.139" xlink:href="#linear-gradient"/>
    <clipPath id="clip-path-2">
      <rect id="사각형_11" data-name="사각형 11" class="cls-2" width="34.353" height="31.637"/>
    </clipPath>
  </defs>
  <g id="마스크_그룹_771" data-name="마스크 그룹 771" class="cls-3">
    <g id="그룹_138026" data-name="그룹 138026" transform="translate(20 21)">
      <g id="그룹_30" data-name="그룹 30" transform="translate(36.89 0.877)">
        <path id="패스_25" data-name="패스 25" class="cls-4" d="M143.173,335.041c-.124,0-.574.32-2.525,4.24-.187.109-.559.4-.593.568a.145.145,0,0,0,.028.12c.037.047.078.1.119.145a24.6,24.6,0,0,0-1.029,2.285c0,.011.258,1.146.469,1.248l.081.026.051-.034c.044-.027.048-.033.381-.812.212-.5.5-1.159.76-1.726l.029.04a17.875,17.875,0,0,1,1.13,3.078c.075.247.111.368.128.409a.162.162,0,0,0,.117.1h.028c.2,0,.563-.339.843-.63.074-.077.133-.138-.854-2.945l-.094-.269a3.221,3.221,0,0,0-.661-1.1c.544-1.147,1.858-3.737,2.05-3.949.059-.066.022-.161,0-.207C143.605,335.552,143.363,335.057,143.173,335.041Z" transform="translate(-121.321 -333.608)"/>
        <path id="패스_26" data-name="패스 26" class="cls-4" d="M173.687,333.033a2.711,2.711,0,0,0-.917.519c-.13.108-.185.181-.19.252,0,.039,0,.134,0,.279.007.386.024,1.189-.03,2.2-.013.248-.036.65-.064,1.129-.262,4.542-.241,4.564-.187,4.623l.032.033h.046a4.716,4.716,0,0,0,.912-.264h0c.1-.062.151-.091.533-4.79.05-.621.061-1.615.07-2.34,0-.293.007-.547.012-.72C173.931,333.064,173.747,333.04,173.687,333.033Z" transform="translate(-149.119 -331.921)"/>
        <path id="패스_27" data-name="패스 27" class="cls-4" d="M197.843,338.735c.061-.212.2-1.662.419-4.431l.018-.22a.3.3,0,0,0-.069-.247.224.224,0,0,0-.167-.064.391.391,0,0,0-.045,0,1.95,1.95,0,0,0-1.17.894c-.01.061-.029.354-.067.907-.035.5-.078,1.154-.127,1.789a.116.116,0,0,1-.021,0,2.137,2.137,0,0,0-.752.325c.013-.138.019-.229.025-.3l.012-.145a13.47,13.47,0,0,0,.046-2.3c-.014-.047-.058-.1-.179-.079s-1.093.326-1.085.63c.006.172.008,2.03-.08,3.005-.013.148-.036.377-.065.663-.046.453-.1,1.046-.162,1.685-.068.008-.209.044-.565.134a9.538,9.538,0,0,1-1.595.392h-.02c-.518-.013-.516-.078-.51-.316.018-.692.194-2.853.335-3.811a9.975,9.975,0,0,0,1.039-.019,1.041,1.041,0,0,0,.514-.315s.347-.358.264-.553c-.015-.031-.047-.1-.183-.1-.215.012-2.65.164-2.8.179a1.867,1.867,0,0,0-.984.515.166.166,0,0,0-.008.185c.091.142.441.143.648.129a32.5,32.5,0,0,0-.427,4.086,1.479,1.479,0,0,0,.3,1.043.573.573,0,0,0,.4.19,19.971,19.971,0,0,0,3.5-.78c-.08,1.02-.054,1.045-.013,1.087l.036.037.049,0a2.4,2.4,0,0,0,.978-.536,31.033,31.033,0,0,0,.408-3.613,1.675,1.675,0,0,1,.825-.789c-.046.568-.082.952-.106,1.142-.049.376-.165,1.867-.257,3.065-.061.786-.118,1.527-.128,1.586l-.012.086.055.044a.189.189,0,0,0,.119.03,2.539,2.539,0,0,0,.7-.192c.188-.1.348-.945.716-3.774C197.746,339.369,197.815,338.835,197.843,338.735Z" transform="translate(-163.881 -332.543)"/>
        <path id="패스_28" data-name="패스 28" class="cls-4" d="M33.622,339.206a2.107,2.107,0,0,0-1.43-.846,4.136,4.136,0,0,0-3.276,1.2c-.019.11.026.394.2.426.043.009.072,0,.262-.071a5.3,5.3,0,0,1,1.92-.388,1.248,1.248,0,0,1,.93.385,1.594,1.594,0,0,1,.189,1.251c-.223,1.613-3.011,5.286-4.2,6.854a4.433,4.433,0,0,0-.588.823.3.3,0,0,0,.254.361h.01c.327,0,2.18-2.233,2.987-3.266,1.017-1.3,2.763-3.685,3.024-4.989A2.23,2.23,0,0,0,33.622,339.206Z" transform="translate(-27.62 -336.363)"/>
        <path id="패스_29" data-name="패스 29" class="cls-4" d="M70.148,336.531a2.473,2.473,0,0,0,.706-.107.646.646,0,0,0,.2-.2,5.7,5.7,0,0,0,.29-1.307,8.4,8.4,0,0,1,2.223-.45,2.046,2.046,0,0,0,.218-.025.163.163,0,0,0,.125-.16.453.453,0,0,0-.32-.38,11.088,11.088,0,0,0-2.078-.028c.125-.937.4-4.638.374-4.733-.02-.064-.155-.28-.35-.223-.075.021-.886.385-.886.589,0,.129-.378,4.677-.493,5.488-.03.219-.084.477-.132.706-.122.59-.149.747-.042.809A.382.382,0,0,0,70.148,336.531Z" transform="translate(-63.152 -328.456)"/>
        <path id="패스_30" data-name="패스 30" class="cls-4" d="M60.978,380.339a4.8,4.8,0,0,0-2.083.19.281.281,0,0,0-.057.267.263.263,0,0,0,.164.217,2.232,2.232,0,0,0,.561-.027c.125-.012.281-.024.311-.026a.186.186,0,0,1,.125.057.159.159,0,0,1,0,.131c-.008.03-.025.1-.05.208a14.363,14.363,0,0,1-.685,2.314,2.679,2.679,0,0,1-.773.032v0l0-.028c.015-.131.036-.611.058-1.121s.045-1.058.059-1.133c.082-.458.05-.522.037-.546-.069-.14-.411-.156-.541-.162-.246,0-.414.08-.474.213a16,16,0,0,0-.307,3.328.137.137,0,0,0,.069.079,1.929,1.929,0,0,0,.755.117,9.052,9.052,0,0,0,2.647-.48.422.422,0,0,0,.105-.386.2.2,0,0,0-.156-.154h0l-.072,0-.037.052a.349.349,0,0,1-.149.061,21.238,21.238,0,0,0,.816-2.477A.72.72,0,0,0,60.978,380.339Z" transform="translate(-52.554 -371.613)"/>
        <path id="패스_31" data-name="패스 31" class="cls-4" d="M108.18,379.8a.4.4,0,0,0-.409.072h0a.618.618,0,0,0-.285-.339.353.353,0,0,0-.307,0,3.825,3.825,0,0,0-1.5,2.018c-.377,1.184-.411,2.616.4,2.961a1.529,1.529,0,0,0,.6.126,1.454,1.454,0,0,0,.6-.134,2.969,2.969,0,0,0,1.411-1.864,3.643,3.643,0,0,0,.095-1.76C108.68,380.291,108.452,379.888,108.18,379.8Zm-.42.566c.03.007.068.015.1.025a4.138,4.138,0,0,1-.01,2.023c-.218.661-.7.959-.96.916-.011,0-.044-.006-.081-.066a2.787,2.787,0,0,1,.124-1.789,4.8,4.8,0,0,1,.655-1.22.02.02,0,0,0,0,.008C107.622,380.335,107.7,380.351,107.76,380.364Z" transform="translate(-92.973 -370.949)"/>
        <path id="패스_32" data-name="패스 32" class="cls-4" d="M97.3,332.083c-.094-.025-.235.006-.775.254l-.027.012a14.4,14.4,0,0,1-1.919.722,9.2,9.2,0,0,1,.062-1.753c.012-.124.023-.235.03-.323.943-.256,1.4-.691,1.357-.9-.021-.1-.263-.263-.31-.289a.3.3,0,0,0-.244-.056l-.071.028a4.36,4.36,0,0,1-1.955.506c-.5-.086-.65-.312-.61-.934a13.986,13.986,0,0,1,.3-2.371,2.952,2.952,0,0,1,.326-.027c.153-.006.3-.01.444-.014.769-.02,1.377-.036,1.583-.456a.144.144,0,0,0-.008-.134.607.607,0,0,0-.408-.237,19.971,19.971,0,0,0-2.8.107c-.139.016-.292.185-.492.423a2.02,2.02,0,0,1-.154.171c-.051.048-.147.137-.1.233s.144.083.208.079a9.23,9.23,0,0,0-.3,2.623c0,.973.563,1.437,1.115,1.466a3.423,3.423,0,0,0,.762-.018c0,.028-.006.058-.009.091l-.007.071a13.769,13.769,0,0,0,.027,1.942,7.636,7.636,0,0,1-1.509.17,2.521,2.521,0,0,1-1.126-.242.605.605,0,0,0-.129-.048,1.567,1.567,0,0,0-.678.237.176.176,0,0,0-.077.184,1.142,1.142,0,0,0,.546.757,2.618,2.618,0,0,0,.894.128,17.219,17.219,0,0,0,5.842-1.564,1.058,1.058,0,0,0,.347-.683A.186.186,0,0,0,97.3,332.083Z" transform="translate(-79.854 -326.088)"/>
        <path id="패스_33" data-name="패스 33" class="cls-4" d="M241.924,390.585c-.057-.071-.16-.047-.21-.036-.083.019-.734.238-.773.4a.3.3,0,0,0,.019.161.608.608,0,0,1,.006.4,1.752,1.752,0,0,1-.236.368c-.185.246-.358.477-.215.641a.26.26,0,0,0,.206.088.445.445,0,0,0,.07-.007,3.015,3.015,0,0,0,1.32-1.049A1.8,1.8,0,0,0,241.924,390.585Z" transform="translate(-206.4 -380.222)"/>
        <path id="패스_34" data-name="패스 34" class="cls-5" d="M93.2,445.123l-.1.006v0h-.011c-1.583.14-2.469.233-2.633.276a1.7,1.7,0,0,1-.213.034c-.291.038-.5.073-.587.2a.158.158,0,0,0,.009.185,1.258,1.258,0,0,0,.66.362c-.139.758-.255,2.6-.3,3.509a.152.152,0,0,0-.085-.034,1.254,1.254,0,0,0-.194.027,3.261,3.261,0,0,1-.683.068c-.193,0-.244-.028-.257-.042a.33.33,0,0,1-.009-.139l0-.054c.014-.527.091-3.129.189-4.026a4.956,4.956,0,0,0,.888-.1v.007c.125-.011.21-.138.278-.238a.6.6,0,0,1,.067-.091c.09-.088.124-.18.092-.252-.02-.044-.062-.094-.2-.091l-.09.005c-1.316.068-2.019.117-2.149.152-.045.012-.1.02-.148.029a.6.6,0,0,0-.425.189.186.186,0,0,0,.027.231.932.932,0,0,0,.5.271c-.169.956-.252,3.993-.253,4.025a1.31,1.31,0,0,0,.128.647.486.486,0,0,0,.411.289h.037a7.816,7.816,0,0,0,1.835-.316c.01-.006.015-.018.024-.026a1.25,1.25,0,0,0,.12.536.489.489,0,0,0,.411.289h.014a10.643,10.643,0,0,0,2.391-.822c.14-.086.15-.357.115-.484s-.117-.156-.153-.146a3.323,3.323,0,0,0-.611.177c-.165.055-.341.113-.493.16l-.091.028c-.117.036-.238.074-.255.078a.234.234,0,0,1-.006-.081c.013-.518.142-3.023.256-3.934a7.159,7.159,0,0,0,1.26-.215v0c.127-.011.2-.141.262-.246a.573.573,0,0,1,.064-.1c.091-.087.124-.179.093-.252C93.371,445.168,93.332,445.118,93.2,445.123Zm-.235.592h0Z" transform="translate(-77.728 -425.741)"/>
        <path id="패스_35" data-name="패스 35" class="cls-6" d="M129.38,443.634a.28.28,0,0,0,.064-.31.455.455,0,0,0-.489-.269,4.768,4.768,0,0,0-1.719.377c.084-.688.268-3.669.279-4.1,0-.031.019-.743-.114-.883l-.046-.038-.04,0h0a2.434,2.434,0,0,0-.9.419.211.211,0,0,0-.077.143c0,.054-.044,1.887-.1,2.389-.086.791-.176,1.986-.261,2.936l-.013.143c-.213,2.337-.436,4-.385,4.051l.034.032.045,0c.067-.006.894-.356.983-.585.041-.1.442-2.508.587-3.64a8.87,8.87,0,0,1,1.174-.41,6.907,6.907,0,0,1,.7-.169A.834.834,0,0,0,129.38,443.634Z" transform="translate(-109.89 -420.436)"/>
        <path id="패스_36" data-name="패스 36" class="cls-7" d="M154.827,417.213c.108-.026.252-.056.419-.088a12.861,12.861,0,0,0-.444,2.853l0,.113c.009.336.015.58.264.693a.729.729,0,0,0,.288.047,3.745,3.745,0,0,0,1.615-.457.331.331,0,0,0-.051-.306c-.063-.091-.129-.1-.165-.088a.311.311,0,0,0-.078.031.9.9,0,0,1-.706.095c-.073-.032-.083-.167-.046-.573.051-.539.326-2.159.411-2.595.39-.071.706-.134.968-.187a.979.979,0,0,0-.163.642.108.108,0,0,0,.126.083h0c.072-.018.163-.033.26-.049a19.547,19.547,0,0,0-.436,2.772c-.036.346-.029.684.266.818a.553.553,0,0,0,.211.03,10.52,10.52,0,0,0,2.957-.8.264.264,0,0,0-.042-.262.194.194,0,0,0-.186-.105l-.117.036c-1.427.475-1.816.467-1.922.418-.061-.028-.121-.116-.046-.567.039-.228.1-.643.17-1.08.083-.541.169-1.1.223-1.408l.249-.031c.587-.074,1.142-.142,1.7-.247a.225.225,0,0,0,.179-.252c-.022-.156-.237-.5-1.794-.349-.368.036-.809.1-1.126.163a.194.194,0,0,0,.023-.118c-.028-.162-.283-.433-1.041-.322-.244.038-.564.08-.868.121-.616.081-.892.12-.957.143-.25.088-.31.623-.276.742A.108.108,0,0,0,154.827,417.213Z" transform="translate(-134.355 -401.693)"/>
        <path id="패스_37" data-name="패스 37" class="cls-8" d="M226.1,433.7a.253.253,0,0,0,.079.209.186.186,0,0,0,.118.037.377.377,0,0,0,.091-.013c.026-.006.53-.136.642-.381a5.221,5.221,0,0,0,.206-.663,7.78,7.78,0,0,1,1.435-.455c.307-.055.84-.117,1.309-.172a5.459,5.459,0,0,0,.941-.136.3.3,0,0,0,.127-.3c-.023-.1-.115-.234-.424-.259a13.568,13.568,0,0,0-3.17.4c.32-1.383.871-4.226.642-4.7l-.027-.042-.037-.012a1.191,1.191,0,0,0-.528.078c-.04.021-.1.047-.169.077-.318.139-.428.2-.42.3a27.3,27.3,0,0,1-.69,5.327C226.134,433.485,226.1,433.647,226.1,433.7Z" transform="translate(-194.34 -411.025)"/>
        <path id="패스_38" data-name="패스 38" class="cls-9" d="M155.389,454.438h-.039l.278-.4a17.958,17.958,0,0,1,1.505-1.967.26.26,0,0,0,.041-.051c.2-.008.529-.049.537-.234a1.042,1.042,0,0,0-.46-.672,8.412,8.412,0,0,0-3.249.4,14.814,14.814,0,0,0-2.4.785c-.05.137.175.435.24.5.048.051.12.117.2.088a32.388,32.388,0,0,1,4.434-1.046h.034a.559.559,0,0,1,.215.05A8.873,8.873,0,0,0,154,454.7l-.139.193a31.993,31.993,0,0,0-2.289,3.688.194.194,0,0,0,.074.189c.181.141.644.031.806-.04.07-.03.151-.073.157-.141.043-.126.828-1.306,1.4-2.168l.508-.766a.553.553,0,0,1,.039-.057.818.818,0,0,0,.064-.088h0c.734.02,2.175,3.088,2.869,4.561.506,1.077.529,1.108.622,1.111h0a.706.706,0,0,0,.428-.263,1.039,1.039,0,0,0,.274-.645C158.838,459.7,156.489,454.467,155.389,454.438Z" transform="translate(-131.736 -431.056)"/>
        <path id="패스_39" data-name="패스 39" class="cls-10" d="M198.975,428.905h0a18.292,18.292,0,0,1,1.931-.013.112.112,0,0,0,.128-.087,1.268,1.268,0,0,0-.247-.722,3.923,3.923,0,0,0-1.578-.139c.094-.64.487-2.922.556-3.072a.121.121,0,0,0-.009-.125c-.041-.057-.118-.073-.265-.056-.283.032-1.026.236-1.124.471a21.465,21.465,0,0,0-.294,2.929,7.638,7.638,0,0,0-1.777.335c-.1.1.039.364.169.567.1.158.17.224.237.224a.124.124,0,0,0,.039-.006,9.308,9.308,0,0,1,2.21-.3,2.75,2.75,0,0,0-2.028,1.6.313.313,0,0,0,.159.305,6.892,6.892,0,0,0-.774,1.982.547.547,0,0,0,.136.442.609.609,0,0,0,.412.121h.014c.851,0,2.727-1.66,2.765-3.474C199.645,429.315,199.374,428.914,198.975,428.905Zm-1.349,3.389h-.006c-.17,0-.236-.117-.231-.39a2.794,2.794,0,0,1,.359-.887,1.958,1.958,0,0,0,.268-.644.534.534,0,0,0-.026-.219c.116-.189.243-.309.332-.309h0c.146,0,.228.276.218.729C198.53,431.144,198.1,432.294,197.626,432.294Z" transform="translate(-169.272 -408.906)"/>
        <path id="패스_40" data-name="패스 40" class="cls-11" d="M219.316,471.272h0l-.4.116c-5.427,1.583-6.8,1.92-6.98,1.92h-.008a.265.265,0,0,1-.056-.021c0-.012-.006-.061.076-.259.168-.4.624-1.267.843-1.68.054-.1.091-.173.112-.22v0a.139.139,0,0,0,.022-.07.043.043,0,0,0,0-.017.128.128,0,0,0-.012-.042c-.04-.078-.14-.1-.337-.113h-.016a1.763,1.763,0,0,0-.723.245,13.688,13.688,0,0,0-1.527,2.5c-.107.372,0,.635.293.719a.271.271,0,0,0,.066.006c.962,0,8.929-2.545,9-2.576a.156.156,0,0,0,.079-.206C219.7,471.432,219.46,471.231,219.316,471.272Z" transform="translate(-181.039 -447.713)"/>
        <path id="패스_41" data-name="패스 41" class="cls-12" d="M279.231,366.695a8.286,8.286,0,0,0-1.936.373l-.11.035c.038-.028.059-.047.034-.04,1.667-2.1,3.774-5.813,4.061-7.948.36-2.666-1.19-3.719-3.05-3.908-4.642-.469-12.219,2.539-12.356,2.8-.27.515.44,1.543.929,1.355,1.626-.624,6.7-2.378,9.373-2.385,1.926-.005,2.48.907,2.2,2.988-.33,2.442-2.558,6.244-3.41,7.774h.144c-.034.015-.066.027-.1.043-.358.112-1.523.5-1.888.613.224-1.2.759-6.074.778-6.211.044-.326-2.121.46-2.3.677-.126.155-.548,5.528-.614,6.1a.173.173,0,0,0,.012.094c-1.626.508-2.939.885-3.094.952-.738.32,1.39,1.085,1.688,1.1s10.54-3.514,10.993-3.62S279.632,366.631,279.231,366.695Z" transform="translate(-227.696 -350.506)"/>
        <path id="패스_42" data-name="패스 42" class="cls-13" d="M470,334.53a39.419,39.419,0,0,0-8,1.286c.934-2.9,2.8-8.93,2.793-9.065-.018-.235-2.855.276-3.009.548-.106.189-1.639,6.644-2.2,8.88-.038.153-.033.137-.086.345-.17.089-.669.339-.8.433-.153.107.28.4.526.642-.442,1.705-1.326,5.1-1.674,6.39-1.257.057-3.639,1.121-3.74,1.719-.067.4.186.481.438.495a10.842,10.842,0,0,0-1.893,4.608c-.19,1.37.216,1.753,1.249,2,2.421.57,5.589-2.107,6.084-5.025a3.721,3.721,0,0,0-.832-3.253,3.812,3.812,0,0,0,.693-.257,3.749,3.749,0,0,0,.563-1.376.047.047,0,0,1,.008-.006c2.527-2.134,7.975-2.552,8.079-2.749.073-.139-.453-.976-.561-.986a32.231,32.231,0,0,0-6.9,1.379c.154-.627.54-2.212.65-2.678.01-.04.022-.086.034-.132a39.474,39.474,0,0,1,8.832-1.6C471.073,336.08,470.375,334.529,470,334.53Zm-12.132,13.38c-.256,1.51-1.673,3.416-2.53,3.271s-.817-.685-.639-1.737c.194-1.143,1.238-3.122,1.333-3.68.039-.23.033-.333-.027-.386a1.369,1.369,0,0,1,.739-.252C457.823,345.309,458.12,346.4,457.864,347.911Z" transform="translate(-384.348 -326.595)"/>
        <path id="패스_43" data-name="패스 43" class="cls-14" d="M423.167,361.365c1.824-3.518,1.839-5.471-.13-5.875a7.186,7.186,0,0,0-6.964,2.571c-.383.481.4.612.635.544.328-.094,3.064-1.883,4.071-1.537,1.446.5,1.043,2.645-.744,5.639-1.132,1.895-3.45,3.584-4.287,3.174s.108-2.506.477-3.263c.639-1.309,1.715-2.482,1.937-2.95.317-.665-.437-1.034-.558-1.092-.339-.165-2.843,1.737-4.4,6.01-.809,2.219-.061,2.9.443,3.123C416.265,368.9,420.813,365.907,423.167,361.365Z" transform="translate(-351.198 -350.678)"/>
        <path id="패스_44" data-name="패스 44" class="cls-15" d="M338.905,346.815c-.322.044-1.638.86-2.967,1.48.868-2.62,3.607-12.632,3.769-13.473.154-.8.117-.923-.148-.93-.32-.008-2.671.595-2.664.925s-2.832,12.846-3.108,14.317c-.011.059-.019.111-.027.165a3.068,3.068,0,0,0-1.128,1.741.1.1,0,0,0,.013.061c-.925.3-1.875.811-2,1.2a.7.7,0,0,0,0,.425,9.269,9.269,0,0,0-2.627,4.236c-.4,1.361.019,2.211.827,2.462,2.374.739,5.2-1.7,6.13-4.587.625-1.945.181-3.635-.739-3.931a1.315,1.315,0,0,0-.436-.04,38.076,38.076,0,0,1,6.528-3.152C340.749,347.563,339.344,346.754,338.905,346.815Zm-5.864,8.484c-.479,1.494-1.913,2.906-2.572,2.694s-.464-.937-.129-1.98a23.954,23.954,0,0,1,1.728-3.2,1.244,1.244,0,0,1,.973-.327C333.895,352.681,333.522,353.8,333.041,355.3Z" transform="translate(-279.815 -332.643)"/>
      </g>
      <g id="그룹_2" data-name="그룹 2" transform="translate(0 0)">
        <g id="그룹_1" data-name="그룹 1" class="cls-16">
          <path id="패스_1" data-name="패스 1" class="cls-17" d="M29.524,20.286c-.078-.032-1.769-.214-2.386-.28h0l-.761,1.506s-1.115,1.06-1.166,1.562-2.18,1.673-2.434,1.952a13.542,13.542,0,0,1-1.825.837c-.208.163-1.449.782-1.775.948-.541.276-4.006,0-4.006,0l-1.014-.167a11.792,11.792,0,0,0-1.673-.614,12.567,12.567,0,0,1-2.637-1.785c-.254-.279-1.217-.837-1.369-1.171s-1.521-1.9-1.724-2.231a29.984,29.984,0,0,1-1.369-3.068,14.34,14.34,0,0,1-.1-2.9c.1-.335.152-1.9.3-2.454s.659-1.729.659-1.729,1.471-2.231,1.978-2.9a19.512,19.512,0,0,1,2.637-2.175L12.485,5l.862-.335L14.665,4.5l.558-.112L17.1,4.11l2.941.614a7.41,7.41,0,0,1,1.92.653c.074.042.122.073.122.073s-.028.166.443.333a1.138,1.138,0,0,1,.545.472l.209.075c.354.329.768.9,1.11,1.026.006.009-.057-.112-.057-.112l.2.466a2.906,2.906,0,0,1,.437.48c.038.112.412.792.412.792l.143.173.2.423.1.033.153.256.163-.194a2.311,2.311,0,0,0-.287-.634,5.859,5.859,0,0,1-.537-.83c-.034-.084-.288-.622-.288-.622l-.289-.431-.214-.243c.044-.018.112.1.152.077l.142.053a5.342,5.342,0,0,1,.623.777c.128.254.318.377.347.626s.319.381.319.381.192.432.282.575a2.246,2.246,0,0,1,.214.511c.075.224.322-.118.322-.118l-.25-.786a4.655,4.655,0,0,1,.627.509c.036.09.04.119.1.006s.134.062.03-.407c-.1-.437-.19-.507-.19-.507L27.2,8.458l.234.217.072-.054s-.13-.7-.075-.675c0-.074,0-.176,0-.176a2,2,0,0,1-.179-.419c-.014-.118.142.03.142.03a1.207,1.207,0,0,0,.223.194.44.44,0,0,0,.314.1l.09.009.136.151a2.947,2.947,0,0,0,.089-.718c-.273-.577.071-.354.071-.354a3.974,3.974,0,0,0,.044-1.027,9.1,9.1,0,0,0-1.6-1.938c.207.14-.143-.316-.134-.243-.024-.206-.332-.245-.458-.427s-.465-.282-.612-.413c-.208-.186.01-.191-.375-.349a19.383,19.383,0,0,1-1.86-1.075l-.016.043c-.033-.018-.067-.038-.1-.054a15.953,15.953,0,0,0-2.6-.828A9.078,9.078,0,0,0,17.886.008c-1.544-.047-3.7.127-3.7.127a14.5,14.5,0,0,0-1.968.382,6.454,6.454,0,0,1-1.759.615,22.663,22.663,0,0,0-2.1,1.153A18.37,18.37,0,0,0,6.452,3.648,13.3,13.3,0,0,0,4.29,6.088,29.351,29.351,0,0,0,2.373,9.559c-.289.891-.695,1.4-.753,1.783A6.126,6.126,0,0,1,1.216,13a18.31,18.31,0,0,0-.058,3.056,7.964,7.964,0,0,0,.116,1.91,5.884,5.884,0,0,1,.174,1.528s.695,1.974.926,2.8a1.443,1.443,0,0,0,.752,1.019s.116.828,0,.637-.695-.7-.752-.955a4.85,4.85,0,0,0-.579-1.528A8.019,8.019,0,0,1,1.273,20a10.686,10.686,0,0,1-.232-2.1L.637,16.5s-.058-.637-.058-1.146-.405-.127-.405-.127L0,16.181s.058.955.347,1.21-.174.828.058,1.4.926,2.611,1.158,3.12a13.719,13.719,0,0,0,2.2,3.757c.984.891,2.142,2.483,2.721,2.8s3.357,1.783,3.7,1.847,2.887.95,3.649,1a7.215,7.215,0,0,0,1.382.21,6.79,6.79,0,0,0,1.572.1,10.113,10.113,0,0,0,1.382-.1,13.059,13.059,0,0,0,1.8-.448,26.931,26.931,0,0,0,4.746-2.165,19.965,19.965,0,0,0,4.11-3.438,12.858,12.858,0,0,0,1.737-2.738,8.03,8.03,0,0,1,.579-1.273l.465-1.258-.319-.045a15.319,15.319,0,0,1-1.764.123" transform="translate(0 0)"/>
          <path id="패스_2" data-name="패스 2" class="cls-17" d="M274.184,144.377a15.392,15.392,0,0,0-3.766-1.158c-.09-.019-.491.52-.554.479.055.589-.284.981-.34,1.541a31.853,31.853,0,0,0,3.279.15,4.419,4.419,0,0,1,1.166-.12s.219-.89.215-.89" transform="translate(-241.73 -128.45)"/>
          <path id="패스_3" data-name="패스 3" class="cls-18" d="M163.712,162.668l-.085,0h-.145a2.8,2.8,0,0,0-.73.111,13.759,13.759,0,0,1-2.643-.1,3.309,3.309,0,0,0-1.275-.024c-.26.232-1.458.09-1.458.09a27.328,27.328,0,0,1-4.689.257,1.318,1.318,0,0,0-.95-.083l-1.389-.174-2.034-.013-1.265,1.576s2.041,1.1,2.257.868c.13-.139,1.216,0,1.216,0l1.042.033,1.095.022.538-.03,1.7.116s2.063.237,2.608.347a5.694,5.694,0,0,0,.886.109l.7.081.665.064c.656.064,1.571.158,1.649.187.051.019.83-.022,1.71-.076,1.2-.074,2.6-.172,2.6-.172l.28-1.368.067-1.063.174-.521a25.192,25.192,0,0,0-2.527-.239" transform="translate(-131.885 -145.838)"/>
          <path id="패스_4" data-name="패스 4" class="cls-19" d="M172.911,96.579l.777-.187.738-.261.6-.51.5-.6.323-.712.072-.761-.032-.813-.418-.687-.4-.7-.724-.353-.707-.275-.733-.088-.784.047-.766.228-.653.481-.371.713-.283.71-.106.74.137.771.118.815.594.565.683.386.658.44Z" transform="translate(-152.423 -81.279)"/>
        </g>
      </g>
    </g>
    <path id="Icon_core-hamburger-menu" data-name="Icon core-hamburger-menu" d="M5.625,6.75H23.258v1.6H5.625Zm0,7.214H23.258v1.6H5.625Zm0,7.214H23.258v1.6H5.625Z" transform="translate(346.742 22.745)"/>
    <path id="Icon_akar-search" data-name="Icon akar-search" class="cls-20" d="M22.788,22.788l-4.672-4.68M20.7,11.852A8.852,8.852,0,1,1,11.852,3,8.852,8.852,0,0,1,20.7,11.852Z" transform="translate(307.791 24.371)"/>
  </g>
</svg>
